<svg width="60" height="60" viewBox="0 0 60 60" fill="none" xmlns="http://www.w3.org/2000/svg">
<path d="M39.2156 43.5294C36.8275 45.1411 33.8037 46.2745 30.196 46.2745C23.225 46.2745 17.414 41.6424 15.294 35.2941V35.2941C14.7578 33.6823 14.5097 31.979 14.5097 30.196C14.5097 28.4131 14.7578 26.3176 15.294 24.7058C17.414 18.3562 23.225 13.7254 30.196 13.7254C34.1441 13.7254 37.9796 15.0095 40.7842 17.647L48.2352 10.196C43.58 5.84801 37.435 3.13721 30.196 3.13721C19.7146 3.13721 10.6864 9.24818 6.27439 18.0392C4.44623 21.6538 3.5293 25.8493 3.5293 30.196C3.5293 34.5428 4.44623 38.3461 6.27439 41.9607V41.9607C10.6864 50.7255 19.7158 56.8627 30.196 56.8627C37.435 56.8627 43.7995 54.3004 48.2352 50.196C53.3056 45.5082 56.0783 38.7682 56.0783 30.5882C56.0783 28.6828 56.0029 26.8572 55.6862 25.098H30.196V35.6862H44.7058C44.0723 39.0322 42.0676 41.624 39.2156 43.5294Z" stroke="#18AB22" stroke-width="1.62345" stroke-linecap="round" stroke-linejoin="round"/>
</svg>
