<svg width="30" height="30" viewBox="0 0 30 30" fill="none" xmlns="http://www.w3.org/2000/svg">
<path d="M26.4712 6.92902C27.8118 6.92902 28.9024 5.84129 28.9024 4.50424C28.9024 3.16361 27.8117 2.07324 26.4712 2.07324C25.1344 2.07324 24.0467 3.16367 24.0467 4.50424C24.0467 5.15064 24.3025 5.73728 24.7162 6.1724L20.3495 10.6367C19.9267 10.2816 19.3824 10.0668 18.7884 10.0668C18.2278 10.0668 17.7123 10.2604 17.3012 10.5821L13.5972 6.87805C13.9025 6.47275 14.0858 5.97107 14.0858 5.42633C14.0858 4.0857 12.9954 2.99504 11.6548 2.99504C10.318 2.99504 9.23029 4.08576 9.23029 5.42633C9.23029 5.96674 9.41023 6.46473 9.71035 6.86832L5.01014 11.5687C4.59846 11.2487 4.08307 11.0561 3.52244 11.0561C2.18539 11.0561 1.09766 12.1468 1.09766 13.4874C1.09766 14.8241 2.18539 15.9119 3.52244 15.9119C4.86307 15.9119 5.95344 14.8241 5.95344 13.4874C5.95344 12.9254 5.76002 12.4088 5.43869 11.9966L10.1279 7.30725C10.5451 7.64656 11.0763 7.85082 11.6547 7.85082C12.2306 7.85082 12.7597 7.64908 13.1766 7.31404L16.874 11.0114C16.5555 11.4229 16.3638 11.9377 16.3638 12.4978C16.3638 13.8348 17.4515 14.9226 18.7883 14.9226C20.1289 14.9226 21.2196 13.8348 21.2196 12.4978C21.2196 11.9694 21.0482 11.4812 20.7608 11.082L25.1869 6.55713C25.5599 6.79139 25.9993 6.92902 26.4712 6.92902ZM26.4712 2.67893C27.4779 2.67893 28.2968 3.49783 28.2968 4.50424C28.2968 5.50742 27.4779 6.32334 26.4712 6.32334C25.4683 6.32334 24.6523 5.50736 24.6523 4.50424C24.6523 3.49783 25.4683 2.67893 26.4712 2.67893ZM3.52244 15.3062C2.51926 15.3062 1.70334 14.4903 1.70334 13.4874C1.70334 12.4807 2.51932 11.6618 3.52244 11.6618C4.52885 11.6618 5.34775 12.4807 5.34775 13.4874C5.34775 14.4903 4.52885 15.3062 3.52244 15.3062ZM9.83598 5.42639C9.83598 4.41969 10.652 3.60078 11.6548 3.60078C12.6612 3.60078 13.4801 4.41969 13.4801 5.42639C13.4801 6.42928 12.6612 7.24519 11.6548 7.24519C10.6519 7.24519 9.83598 6.42922 9.83598 5.42639ZM18.7883 14.317C17.7855 14.317 16.9695 13.501 16.9695 12.4979C16.9695 11.4915 17.7855 10.6726 18.7883 10.6726C19.795 10.6726 20.6139 11.4915 20.6139 12.4979C20.6139 13.501 19.795 14.317 18.7883 14.317Z" fill="#18AB22"/>
<path d="M27.9947 24.8448H26.7765V11.359C26.7765 11.1916 26.6411 11.0562 26.4737 11.0562C26.3063 11.0562 26.1709 11.1916 26.1709 11.359V24.8448H19.0937V18.9181C19.0937 18.7507 18.9582 18.6153 18.7909 18.6153C18.6235 18.6153 18.4881 18.7508 18.4881 18.9181V24.8448H11.9602V11.359C11.9602 11.1916 11.8247 11.0562 11.6573 11.0562C11.4899 11.0562 11.3545 11.1916 11.3545 11.359V24.8448H3.82781V18.9181C3.82781 18.7507 3.69234 18.6153 3.525 18.6153C3.35766 18.6153 3.22219 18.7508 3.22219 18.9181V24.8448H2.00402C1.15436 24.8448 0.462891 25.536 0.462891 26.3856C0.462891 27.2353 1.15436 27.9265 2.00402 27.9265H27.9947C28.8444 27.9265 29.5355 27.2353 29.5355 26.3856C29.5355 25.536 28.8444 24.8448 27.9947 24.8448ZM27.9947 27.3208H2.00396C1.48816 27.3208 1.06852 26.9014 1.06852 26.3856C1.06852 25.8698 1.48816 25.4505 2.00396 25.4505H27.9947C28.5105 25.4505 28.9298 25.8698 28.9298 26.3856C28.9298 26.9014 28.5104 27.3208 27.9947 27.3208Z" fill="#18AB22"/>
</svg>
