<svg width="36" height="36" viewBox="0 0 36 36" fill="none" xmlns="http://www.w3.org/2000/svg">
<path d="M27.587 23.8301C27.2927 23.7692 26.9903 23.7376 26.6781 23.7376C26.2889 23.7376 25.9144 23.7863 25.5552 23.8779C24.5668 24.1309 23.7114 24.7081 23.1049 25.4922C22.749 25.2481 22.3509 25.06 21.926 24.9425C21.5863 24.8484 21.2304 24.7981 20.8598 24.7981C20.7398 24.7981 20.6215 24.803 20.5055 24.8144C20.242 23.993 19.5869 23.3476 18.7591 23.0987V19.605H17.2429V23.0987C16.415 23.3476 15.7599 23.993 15.4964 24.8144C15.3788 24.803 15.2613 24.7981 15.1413 24.7981C14.7715 24.7973 14.4156 24.8468 14.0759 24.9417C13.651 25.06 13.2529 25.2481 12.8962 25.4922C12.2913 24.709 11.4351 24.1301 10.4467 23.8787C10.0884 23.7863 9.71216 23.7376 9.32459 23.7376C9.01244 23.7376 8.70838 23.7692 8.41406 23.8301" stroke="#18AB22" stroke-width="0.640171" stroke-miterlimit="10"/>
<path d="M27 27C31.9706 22.0294 31.9706 13.9706 27 9C22.0294 4.02944 13.9706 4.02944 9 9C4.02944 13.9706 4.02944 22.0294 9 27C13.9706 31.9706 22.0294 31.9706 27 27Z" stroke="#18AB22" stroke-width="0.640171" stroke-miterlimit="10"/>
<path d="M18.0047 8.39521C18.0671 8.39521 18.1295 8.4244 18.1693 8.48035L19.1041 9.77844L19.4511 10.2609L19.8776 10.8544L19.9919 15.287C21.1287 16.2324 21.0022 18.5237 20.9284 19.2591C20.4038 18.6056 19.6295 18.1337 18.7352 17.9659C18.7003 17.9594 18.6646 17.9537 18.629 17.948C18.5941 17.9424 18.5584 17.9375 18.5228 17.9326C18.5155 17.9318 18.5082 17.931 18.5001 17.9294C18.5001 17.9294 18.4992 17.9294 18.4984 17.9294L17.4598 17.9343C17.4322 17.9383 17.4047 17.9424 17.3771 17.9472C17.3414 17.9529 17.3066 17.9586 17.2717 17.9659C16.3774 18.1353 15.6031 18.6064 15.0785 19.2591C15.0055 18.5237 14.879 16.2324 16.0158 15.287L16.1285 10.8544L16.2736 10.6533L16.7114 10.0452L17.8376 8.47954C17.8774 8.4236 17.9414 8.3944 18.0039 8.3944M17.9763 13.1035H18.0047C18.2171 13.1035 18.4222 13.0273 18.582 12.8895C18.5957 12.8773 18.6119 12.8619 18.6273 12.8465C18.6663 12.806 18.7044 12.7597 18.7392 12.707C18.7579 12.6779 18.7806 12.6414 18.7976 12.6057C18.8017 12.5952 18.8057 12.587 18.809 12.5814C18.8584 12.4662 18.8836 12.347 18.8836 12.2254C18.8836 11.7406 18.4895 11.3465 18.0047 11.3465H17.9763C17.7793 11.3522 17.5944 11.4219 17.4403 11.5476C17.4322 11.5557 17.4241 11.563 17.416 11.5711C17.4047 11.5825 17.3925 11.5938 17.3812 11.6044C17.309 11.6757 17.2506 11.7592 17.206 11.8541C17.1525 11.9676 17.1249 12.0925 17.1249 12.2238C17.1249 12.703 17.4987 13.0889 17.9755 13.1043M18.0047 7.83252C17.7566 7.83252 17.5231 7.95252 17.3795 8.15441L16.255 9.71763L15.8179 10.3257L15.6736 10.526L15.5715 10.6671L15.5674 10.8414L15.4604 15.0389C14.348 16.1992 14.4274 18.3916 14.519 19.3167L14.6553 20.6877L15.5187 19.6134C15.9712 19.0499 16.632 18.6616 17.3779 18.5205C17.4079 18.5148 17.4371 18.5099 17.4655 18.5051H17.4679L17.4703 18.5043C17.4817 18.5026 17.493 18.501 17.5036 18.4986L18.4644 18.4937C18.4911 18.497 18.5171 18.501 18.543 18.5051C18.5714 18.5099 18.6022 18.5148 18.633 18.5205C19.3773 18.6599 20.0373 19.0483 20.4906 19.6126L21.3516 20.6845L21.4903 19.3167C21.5835 18.3924 21.667 16.2008 20.5506 15.0381L20.4419 10.8406L20.4371 10.6671L20.3357 10.526L19.9092 9.93249L19.5622 9.45006L18.6273 8.15197C18.4846 7.95252 18.252 7.83252 18.0055 7.83252H18.0047ZM17.9868 11.9084H18.0047C18.179 11.9084 18.3201 12.0503 18.3201 12.2238C18.3201 12.2652 18.3128 12.3049 18.2965 12.3454C18.2933 12.3527 18.2892 12.36 18.286 12.3681C18.2836 12.373 18.2779 12.3819 18.269 12.3965C18.2511 12.4225 18.2357 12.4403 18.2252 12.4516C18.2203 12.4565 18.2163 12.4606 18.2114 12.4646C18.1538 12.5133 18.0801 12.54 18.0047 12.54H17.9876C17.8174 12.5311 17.6893 12.3965 17.6893 12.223C17.6893 12.1744 17.6982 12.1322 17.716 12.0933C17.7322 12.0592 17.7517 12.03 17.7752 12.0065C17.7857 11.996 17.7971 11.9854 17.8076 11.9749L17.8109 11.9717C17.8636 11.9327 17.9228 11.9117 17.9868 11.9084Z" fill="#18AB22"/>
</svg>
