<svg width="26" height="26" viewBox="0 0 26 26" fill="none" xmlns="http://www.w3.org/2000/svg">
<path d="M12.5296 18.8111C12.7632 18.8111 12.9602 18.7267 13.1207 18.5578C13.2811 18.3889 13.3613 18.1815 13.3613 17.9356C13.3613 17.6896 13.2804 17.4822 13.1186 17.3133C12.9581 17.1444 12.7611 17.06 12.5274 17.06C12.2938 17.06 12.0968 17.1448 11.9363 17.3144C11.7759 17.4841 11.696 17.6915 11.6967 17.9367C11.6967 18.1826 11.7769 18.39 11.9374 18.5589C12.0992 18.7278 12.2966 18.8122 12.5296 18.8122M11.9838 15.1322H13.0035C13.0302 14.6493 13.1164 14.2567 13.2621 13.9544C13.4078 13.653 13.7072 13.2678 14.1604 12.7989C14.6319 12.3033 14.9823 11.8593 15.2117 11.4667C15.4411 11.0741 15.5562 10.62 15.5569 10.1044C15.5569 9.22889 15.2649 8.53111 14.6808 8.01111C14.096 7.49111 13.4043 7.23111 12.6056 7.23111C11.8463 7.23111 11.2017 7.44815 10.6718 7.88222C10.1419 8.31704 9.7538 8.8163 9.5075 9.38L10.4786 9.80333C10.6475 9.39889 10.8892 9.04148 11.2038 8.73111C11.5183 8.42 11.9722 8.26444 12.5654 8.26444C13.2494 8.26444 13.7491 8.46222 14.0643 8.85778C14.3803 9.25333 14.5383 9.68815 14.5383 10.1622C14.5383 10.5474 14.4394 10.8911 14.2417 11.1933C14.0446 11.4963 13.7878 11.8007 13.4711 12.1067C12.8589 12.7007 12.4578 13.2044 12.2678 13.6178C12.0778 14.0311 11.9831 14.5359 11.9838 15.1322ZM12.5032 23C11.1901 23 9.95506 22.7378 8.79817 22.2133C7.64198 21.6881 6.63604 20.9756 5.78033 20.0756C4.92463 19.1756 4.24731 18.1178 3.74839 16.9022C3.24946 15.6867 3 14.387 3 13.0033C3 11.6196 3.24946 10.3196 3.74839 9.10333C4.24661 7.8863 4.92252 6.82741 5.77611 5.92667C6.6297 5.02593 7.63494 4.31296 8.79183 3.78778C9.94872 3.26259 11.1837 3 12.4968 3C13.8099 3 15.0449 3.26259 16.2018 3.78778C17.358 4.31222 18.364 5.02407 19.2197 5.92333C20.0754 6.82259 20.7527 7.88074 21.2516 9.09778C21.7505 10.3148 22 11.6144 22 12.9967C22 14.3789 21.7509 15.6789 21.2527 16.8967C20.7544 18.1144 20.0775 19.1733 19.2218 20.0733C18.3661 20.9733 17.3612 21.6863 16.2071 22.2122C15.053 22.7381 13.8184 23.0007 12.5032 23ZM12.5 21.8889C14.8574 21.8889 16.8542 21.0278 18.4903 19.3056C20.1264 17.5833 20.9444 15.4815 20.9444 13C20.9444 10.5185 20.1264 8.41667 18.4903 6.69444C16.8542 4.97222 14.8574 4.11111 12.5 4.11111C10.1426 4.11111 8.14583 4.97222 6.50972 6.69444C4.87361 8.41667 4.05556 10.5185 4.05556 13C4.05556 15.4815 4.87361 17.5833 6.50972 19.3056C8.14583 21.0278 10.1426 21.8889 12.5 21.8889Z" fill="#18AB22"/>
</svg>
