<svg width="60" height="60" viewBox="0 0 60 60" fill="none" xmlns="http://www.w3.org/2000/svg">
<path d="M7.5 22.5V48.5C7.5 49.9 7.5 50.6 7.7725 51.135C8.01218 51.6054 8.39462 51.9878 8.865 52.2275C9.4 52.5 10.1 52.5 11.495 52.5H37.5M35 32.5V25M35 25V17.5M35 25H27.5M35 25H42.5M17.5 34.5V15.5C17.5 12.7 17.5 11.3 18.045 10.23C18.525 9.2875 19.2875 8.525 20.23 8.045C21.3 7.5 22.7 7.5 25.5 7.5H44.5C47.3 7.5 48.7 7.5 49.77 8.045C50.7108 8.52436 51.4756 9.28923 51.955 10.23C52.5 11.3 52.5 12.7 52.5 15.5V34.5C52.5 37.3 52.5 38.7 51.955 39.77C51.4756 40.7108 50.7108 41.4756 49.77 41.955C48.7 42.5 47.305 42.5 44.51 42.5H25.4925C22.6975 42.5 21.2975 42.5 20.23 41.955C19.2892 41.4756 18.5244 40.7108 18.045 39.77C17.5 38.7 17.5 37.3 17.5 34.5Z" stroke="#18AB22" stroke-width="1.5" stroke-linecap="round" stroke-linejoin="round"/>
</svg>
