<svg width="30" height="30" viewBox="0 0 30 30" fill="none" xmlns="http://www.w3.org/2000/svg">
<path d="M27.5625 2.73291V21.2896C27.5625 21.4741 27.4131 21.6235 27.2285 21.6235H22.6523C23.2178 20.0005 22.8545 18.1284 21.5566 16.8306C19.752 15.0259 16.8281 15.0259 15.0234 16.8306C13.7285 18.1255 13.3623 20.0005 13.9277 21.6235H2.77148C2.58691 21.6235 2.4375 21.4741 2.4375 21.2896V2.73291C2.4375 2.54834 2.58691 2.39893 2.77148 2.39893H27.2285C27.4131 2.39893 27.5625 2.54834 27.5625 2.73291Z" stroke="#18AB22" stroke-width="0.925165" stroke-miterlimit="10"/>
<path d="M2.4375 5.07373H27.5625" stroke="#18AB22" stroke-width="0.925165" stroke-miterlimit="10"/>
<path d="M3.88867 3.76709H4.7207" stroke="#18AB22" stroke-width="0.925165" stroke-miterlimit="10"/>
<path d="M5.54297 3.76709H6.375" stroke="#18AB22" stroke-width="0.925165" stroke-miterlimit="10"/>
<path d="M7.20117 3.76709H8.03027" stroke="#18AB22" stroke-width="0.925165" stroke-miterlimit="10"/>
<path d="M22.6526 21.6235C22.5647 21.8755 22.4533 22.1245 22.3186 22.3618C22.1164 22.7192 21.8645 23.0591 21.5569 23.3638C19.7522 25.1685 16.8283 25.1685 15.0236 23.3638C14.719 23.0591 14.4641 22.7222 14.2619 22.3618C14.1272 22.1245 14.0158 21.8755 13.9279 21.6235C13.3625 20.0005 13.7258 18.1284 15.0236 16.8306C16.8283 15.0259 19.7522 15.0259 21.5569 16.8306C22.8547 18.1284 23.218 20.0034 22.6526 21.6235Z" stroke="#18AB22" stroke-width="0.925165" stroke-miterlimit="10"/>
<path d="M21.5566 23.3638L22.6113 24.4185" stroke="#18AB22" stroke-width="0.925165" stroke-miterlimit="10"/>
<path d="M25.532 27.3396C25.1511 27.7205 24.533 27.7205 24.1492 27.3396L21.9343 25.1248C21.9255 25.116 21.9255 25.1042 21.9343 25.0984L23.2908 23.7419C23.2996 23.7332 23.3113 23.7332 23.3171 23.7419L25.532 25.9568C25.9128 26.3376 25.9128 26.9587 25.532 27.3396Z" stroke="#18AB22" stroke-width="0.925165" stroke-miterlimit="10"/>
<path d="M16.8965 8.77393V11.8179C16.8965 12.6206 16.2461 13.271 15.4434 13.271H14.5645C13.7617 13.271 13.1113 12.6206 13.1113 11.8179V8.77393C13.1113 7.97119 13.7617 7.3208 14.5645 7.3208H15.4434C16.2461 7.3208 16.8965 7.97119 16.8965 8.77393Z" stroke="#18AB22" stroke-width="0.925165" stroke-miterlimit="10"/>
<path d="M10.7021 6.97803V11.8179C10.7021 12.6206 10.0518 13.271 9.24902 13.271H8.71289C7.91016 13.271 7.25977 12.6206 7.25977 11.8179V11.1792" stroke="#18AB22" stroke-width="0.925165" stroke-miterlimit="10"/>
<path d="M22.7412 8.8208C22.7412 9.62354 22.0908 10.2739 21.2881 10.2739H19.2988V7.36768H21.2881C22.0908 7.36768 22.7412 8.01807 22.7412 8.8208Z" stroke="#18AB22" stroke-width="0.925165" stroke-miterlimit="10"/>
<path d="M22.7412 11.727V11.8179C22.7412 12.6206 22.0908 13.271 21.2881 13.271H19.2988V10.2739H21.2881C22.0908 10.2739 22.7412 10.9243 22.7412 11.727Z" stroke="#18AB22" stroke-width="0.925165" stroke-miterlimit="10"/>
<path d="M6.9668 16.3647H12.1904" stroke="#18AB22" stroke-width="0.925165" stroke-miterlimit="10"/>
<path d="M6.9668 18.8901H11.3994" stroke="#18AB22" stroke-width="0.925165" stroke-miterlimit="10"/>
</svg>
