<svg width="30" height="30" viewBox="0 0 30 30" fill="none" xmlns="http://www.w3.org/2000/svg">
<path d="M17.3543 26.2035C17.3543 26.3263 17.3047 26.444 17.2164 26.5309C17.128 26.6177 17.0082 26.6665 16.8833 26.6665H13.1154C12.9905 26.6665 12.8707 26.6177 12.7823 26.5309C12.694 26.444 12.6444 26.3263 12.6444 26.2035C12.6444 26.0807 12.694 25.9629 12.7823 25.876C12.8707 25.7892 12.9905 25.7404 13.1154 25.7404H16.8833C17.0082 25.7404 17.128 25.7892 17.2164 25.876C17.3047 25.9629 17.3543 26.0807 17.3543 26.2035ZM14.9993 12.7753C15.1857 12.7753 15.3678 12.721 15.5227 12.6193C15.6776 12.5175 15.7983 12.3729 15.8696 12.2036C15.9409 12.0344 15.9596 11.8482 15.9232 11.6686C15.8869 11.4889 15.7972 11.3239 15.6654 11.1944C15.5337 11.0649 15.3659 10.9767 15.1831 10.941C15.0004 10.9052 14.811 10.9236 14.6389 10.9937C14.4667 11.0638 14.3196 11.1824 14.2161 11.3347C14.1126 11.487 14.0574 11.6661 14.0574 11.8492C14.0574 12.0949 14.1566 12.3304 14.3333 12.5041C14.5099 12.6778 14.7495 12.7753 14.9993 12.7753ZM25.7993 18.216L24.3427 24.6523C24.2917 24.8828 24.1813 25.0966 24.0221 25.2731C23.863 25.4497 23.6603 25.5831 23.4337 25.6606C23.2823 25.7128 23.1231 25.7398 22.9627 25.7404C22.6448 25.7402 22.3365 25.6341 22.0878 25.4394L18.7496 22.9622H11.2491L7.91206 25.4394C7.66342 25.6341 7.35503 25.7402 7.03719 25.7404C6.87675 25.7398 6.71755 25.7128 6.56619 25.6606C6.33953 25.5831 6.13691 25.4497 5.97774 25.2731C5.81857 25.0966 5.70819 24.8828 5.65717 24.6523L4.19944 18.216C4.15275 18.0088 4.155 17.7937 4.20603 17.5874C4.25706 17.3811 4.35551 17.1891 4.49381 17.026L7.94974 12.9478C8.33831 6.77433 12.8752 2.91374 14.1339 1.95756C14.3816 1.76889 14.686 1.6665 14.9993 1.6665C15.3127 1.6665 15.6171 1.76889 15.8648 1.95756C17.1235 2.91374 21.6604 6.77433 22.049 12.9478L25.5049 17.026C25.6432 17.1891 25.7416 17.3811 25.7927 17.5874C25.8437 17.7937 25.846 18.0088 25.7993 18.216ZM11.3621 22.0361H18.6366C25.134 10.9799 17.0011 3.98336 15.289 2.68569C15.2063 2.62224 15.1043 2.58777 14.9993 2.58777C14.8944 2.58777 14.7924 2.62224 14.7097 2.68569C12.9976 3.98336 4.86472 10.9799 11.3621 22.0361ZM10.4766 22.3753C8.7728 19.4385 8.04394 16.7714 7.93443 14.4029L5.21679 17.6141C5.1707 17.6685 5.13792 17.7326 5.12098 17.8014C5.10404 17.8703 5.10338 17.942 5.11906 18.0111L6.57443 24.4509C6.59165 24.5278 6.62855 24.5991 6.68164 24.6581C6.73473 24.7171 6.80224 24.7618 6.87781 24.788C6.95337 24.8142 7.03449 24.821 7.11347 24.8078C7.19246 24.7946 7.26671 24.7618 7.3292 24.7125L7.3398 24.7044L10.4766 22.3753ZM24.7819 17.6141L22.0643 14.4029C21.9595 16.7714 21.2306 19.4385 19.5268 22.3753L22.6636 24.7044L22.6742 24.7125C22.7367 24.7618 22.8109 24.7946 22.8899 24.8078C22.9689 24.821 23.05 24.8142 23.1256 24.788C23.2012 24.7618 23.2687 24.7171 23.3218 24.6581C23.3749 24.5991 23.4118 24.5278 23.429 24.4509L24.8843 18.0111C24.8994 17.9417 24.898 17.8697 24.8802 17.8009C24.8625 17.732 24.8288 17.6681 24.7819 17.6141Z" fill="#18AB22"/>
</svg>
