<svg width="30" height="30" viewBox="0 0 30 30" fill="none" xmlns="http://www.w3.org/2000/svg">
<path d="M26.1778 1.2915H3.82046C2.64969 1.2915 1.69727 2.24393 1.69727 3.41442V22.1152C1.69727 23.1461 2.53582 23.9847 3.56674 23.9847H10.6727L10.8556 26.5866C10.8744 26.853 11.0513 27.0761 11.3064 27.1551C11.5609 27.2331 11.8337 27.1499 11.9998 26.9404L12.6405 26.1319C12.6609 26.1057 12.6858 26.1021 12.7057 26.1032C12.7239 26.1046 12.7494 26.1123 12.766 26.1413L14.0583 28.3864C14.1769 28.5926 14.3933 28.7081 14.6158 28.7081C14.7244 28.7081 14.8344 28.6805 14.9353 28.6224L16.4632 27.743C16.6119 27.6573 16.7185 27.5188 16.763 27.353C16.8075 27.1875 16.7849 27.0144 16.6995 26.8663L15.4074 24.6209C15.3905 24.5919 15.3966 24.5662 15.4046 24.5496C15.4126 24.533 15.4292 24.5126 15.4624 24.5076L16.4831 24.3598C16.7051 24.3277 16.8825 24.1832 16.9711 23.9847H26.4316C27.4625 23.9847 28.301 23.1461 28.301 22.1152V3.41442C28.301 2.24393 27.3486 1.2915 26.1778 1.2915ZM16.4018 23.7998L15.3814 23.9474C15.1705 23.9778 14.9889 24.1105 14.8958 24.302C14.8024 24.4938 14.8104 24.7185 14.9165 24.9034L16.2089 27.149C16.2219 27.1714 16.2202 27.1924 16.2164 27.2062C16.2128 27.2201 16.2034 27.2394 16.1807 27.2527L14.6528 28.1321C14.6222 28.1501 14.5666 28.1352 14.5489 28.1039L13.2568 25.8589C13.1504 25.6742 12.96 25.5546 12.7474 25.5388C12.7314 25.5377 12.7157 25.5369 12.6996 25.5369C12.5045 25.5369 12.319 25.6259 12.1966 25.7804L11.5559 26.5888C11.5294 26.6225 11.4965 26.6211 11.4739 26.6142C11.4407 26.604 11.4227 26.5813 11.4202 26.5468L10.967 20.0987C10.9642 20.0595 10.9863 20.0382 11.0051 20.0274C11.0242 20.0166 11.0532 20.0083 11.0861 20.0304L16.4339 23.6613C16.4695 23.6856 16.4706 23.7183 16.4654 23.7415C16.4601 23.7644 16.4446 23.7934 16.4018 23.7998ZM26.4316 23.4187H16.9489C16.901 23.3316 16.8385 23.2519 16.7517 23.1931L11.4039 19.5623C11.1988 19.423 10.9379 19.4133 10.7229 19.5368C10.5079 19.6604 10.3852 19.8911 10.4026 20.1385L10.633 23.4187H3.56674C2.84814 23.4187 2.2633 22.8338 2.2633 22.1152V8.9062H27.735V22.1152C27.735 22.8338 27.1502 23.4187 26.4316 23.4187ZM27.735 8.34017H2.2633V3.41442C2.2633 2.55597 2.96173 1.85754 3.82046 1.85754H26.1778C27.0366 1.85754 27.735 2.55597 27.735 3.41442V8.34017Z" fill="#18AB22"/>
<path d="M5.49908 3.90918C4.71884 3.90918 4.08398 4.54404 4.08398 5.32427C4.08398 6.10451 4.71884 6.73937 5.49908 6.73937C6.27932 6.73937 6.91417 6.10451 6.91417 5.32427C6.91417 4.54404 6.27932 3.90918 5.49908 3.90918ZM5.49908 6.17333C5.03088 6.17333 4.65002 5.79247 4.65002 5.32427C4.65002 4.85608 5.03088 4.47522 5.49908 4.47522C5.96728 4.47522 6.34814 4.85608 6.34814 5.32427C6.34814 5.79247 5.96728 6.17333 5.49908 6.17333Z" fill="#18AB22"/>
<path d="M10.0264 3.90918C9.24619 3.90918 8.61133 4.54404 8.61133 5.32427C8.61133 6.10451 9.24619 6.73937 10.0264 6.73937C10.8067 6.73937 11.4415 6.10451 11.4415 5.32427C11.4415 4.54404 10.8067 3.90918 10.0264 3.90918ZM10.0264 6.17333C9.55823 6.17333 9.17737 5.79247 9.17737 5.32427C9.17737 4.85608 9.55823 4.47522 10.0264 4.47522C10.4946 4.47522 10.8755 4.85608 10.8755 5.32427C10.8755 5.79247 10.4946 6.17333 10.0264 6.17333Z" fill="#18AB22"/>
<path d="M24.501 3.90918H19.1631C18.7815 3.90918 18.426 4.05815 18.1673 4.32348C17.897 4.58715 17.748 4.94259 17.748 5.32427C17.748 6.10451 18.3829 6.73937 19.1631 6.73937H24.501C24.8793 6.73937 25.2356 6.5915 25.5051 6.32258C25.7701 6.05697 25.9161 5.70237 25.9161 5.32427C25.9161 4.54404 25.2812 3.90918 24.501 3.90918ZM25.1046 5.9221C24.9426 6.08406 24.7282 6.17333 24.501 6.17333H19.1631C18.6949 6.17333 18.3141 5.79247 18.3141 5.32427C18.3141 5.09653 18.4023 4.88482 18.5675 4.72369C18.7237 4.56338 18.9354 4.47522 19.1631 4.47522H24.501C24.9692 4.47522 25.35 4.85608 25.35 5.32427C25.35 5.55146 25.2627 5.764 25.1046 5.9221Z" fill="#18AB22"/>
<path d="M5.18481 15.7938L5.69101 14.5793H8.33789L8.84375 15.7938C8.87511 15.8612 8.92044 15.9144 8.98 15.9534C9.03956 15.992 9.10576 16.0117 9.17859 16.0117C9.28251 16.0117 9.36674 15.9778 9.43169 15.9103C9.49629 15.8432 9.5289 15.7598 9.5289 15.6613C9.5289 15.6198 9.51591 15.5679 9.48993 15.5055L7.5048 10.8193C7.46334 10.7258 7.40474 10.6492 7.32964 10.5896C7.25425 10.5301 7.16235 10.5 7.05346 10.5H6.97552C6.86648 10.5 6.77431 10.5301 6.69927 10.5896C6.62389 10.6492 6.56564 10.7258 6.52411 10.8193L4.53897 15.5055C4.51299 15.5679 4.5 15.6198 4.5 15.6613C4.5 15.7598 4.53227 15.8432 4.59722 15.9103C4.66217 15.9778 4.74647 16.0117 4.85032 16.0117C4.92287 16.0117 4.98906 15.992 5.04863 15.9534C5.10853 15.9144 5.15379 15.8612 5.18481 15.7938ZM7.01449 11.4031L8.06544 13.9331H5.96339L7.01449 11.4031Z" fill="#18AB22"/>
<path d="M11.0223 15.9728H12.587C13.1784 15.9728 13.6805 15.8417 14.0933 15.5797C14.506 15.3178 14.8158 14.9792 15.0236 14.5639C15.2311 14.1486 15.335 13.7127 15.335 13.256C15.335 12.7992 15.2311 12.3633 15.0236 11.948C14.8158 11.5331 14.506 11.1945 14.0933 10.9322C13.6805 10.6702 13.1784 10.5391 12.587 10.5391H11.0223C10.9234 10.5391 10.8404 10.5742 10.773 10.6442C10.7055 10.7143 10.6719 10.7985 10.6719 10.897V15.6225C10.6719 15.7213 10.7055 15.8043 10.773 15.8718C10.8404 15.9393 10.9234 15.9728 11.0223 15.9728ZM11.3802 11.2008H12.5012C12.9266 11.2008 13.3004 11.2876 13.6222 11.4615C13.9441 11.6354 14.193 11.8768 14.3694 12.1856C14.5459 12.4945 14.6343 12.8511 14.6343 13.256C14.6343 13.6608 14.5459 14.0178 14.3694 14.3263C14.193 14.6351 13.9441 14.8765 13.6222 15.0504C13.3004 15.2243 12.9266 15.3111 12.5012 15.3111H11.3802V11.2008Z" fill="#18AB22"/>
</svg>
