<svg width="88" height="88" viewBox="0 0 88 88" fill="none" xmlns="http://www.w3.org/2000/svg">
<circle cx="44.5135" cy="44.2543" r="31.5" transform="rotate(-47.2458 44.5135 44.2543)" fill="url(#paint0_linear_655_43860)"/>
<circle cx="44.5135" cy="44.2543" r="31.5" transform="rotate(-47.2458 44.5135 44.2543)" fill="url(#paint1_linear_655_43860)"/>
<path fill-rule="evenodd" clip-rule="evenodd" d="M44.3023 29.0494H43.6977C42.529 29.0494 42.0513 28.9382 41.2791 29.0494C40.4627 29.1662 39.452 29.7035 38.8605 30.3361C38.2677 30.9702 37.7604 31.3944 37.6512 32.2662C37.5771 32.8599 37.6564 34.2676 37.6512 35.4829C35.0226 35.5761 33.9099 36.2394 32.814 37.4129C31.2904 39.0411 31 41.8198 31 47.0631C31 52.3065 31.2904 54.4418 32.814 56.07C34.3376 57.6982 36.3768 58 41.2791 58H46.7209C51.6232 58 53.6637 57.6996 55.186 56.07C56.7083 54.4404 57 52.3065 57 47.0631C57 41.8198 56.7096 39.0411 55.186 37.4129C54.0901 36.2394 52.9774 35.5747 50.3488 35.4829C50.3436 34.2663 50.4242 32.8585 50.3488 32.2662C50.2396 31.393 49.7323 30.9688 49.1395 30.3361C48.548 29.7021 47.5373 29.1662 46.7209 29.0494C45.9487 28.9382 45.4697 29.0494 44.3023 29.0494ZM47.9302 35.4829C47.9237 34.3052 47.9887 33.3809 47.9302 32.9095C47.8483 32.2685 48.0992 31.8036 47.9302 31.6228C47.7612 31.4421 47.3215 31.0671 46.7209 30.9795C46.0943 30.8905 45.5555 30.9795 44.3023 30.9795C43.0491 30.9795 41.907 30.8891 41.2791 30.9795C40.6798 31.0657 40.2388 31.4407 40.0698 31.6228C39.9008 31.805 40.1517 32.2685 40.0698 32.9095C40.0113 33.3823 40.075 34.3052 40.0698 35.4829C40.5794 35.4801 40.7071 35.482 41.2791 35.4829H46.7209C47.2947 35.4829 47.4224 35.481 47.9302 35.4829ZM44.3023 39.9863C44.5609 39.9863 44.7241 40.4341 44.907 40.6297C45.0898 40.8252 44.907 40.9964 44.907 41.273C46.3227 41.654 47.3256 42.8351 47.3256 44.4897C47.3256 44.7663 47.5084 44.9375 47.3256 45.1331C47.1427 45.3287 46.9795 45.7764 46.7209 45.7764C46.4623 45.7764 46.2991 45.3287 46.1163 45.1331C45.9334 44.9375 45.5116 44.7663 45.5116 44.4897C45.5116 43.9558 45.3735 43.203 44.3023 43.203C43.2311 43.203 42.4884 43.9558 42.4884 44.4897C42.4884 45.0237 43.2311 45.7764 44.3023 45.7764C46.1028 45.7764 47.3256 46.9673 47.3256 48.9932C47.3256 50.6478 46.3227 51.8275 44.907 52.2099C44.907 52.4865 45.0898 52.6577 44.907 52.8532C44.7241 53.0488 44.5609 53.4966 44.3023 53.4966C44.0437 53.4966 43.2759 53.0488 43.093 52.8532C42.9102 52.6577 43.093 52.4865 43.093 52.2099C41.6773 51.8289 40.6744 50.6478 40.6744 48.9932C40.6744 48.7166 40.4916 48.5454 40.6744 48.3498C40.8573 48.1542 41.0205 48.3498 41.2791 48.3498C41.5377 48.3498 41.7009 48.1542 41.8837 48.3498C42.0666 48.5454 42.4884 48.7166 42.4884 48.9932C42.4884 49.5271 43.2311 50.2799 44.3023 50.2799C45.3735 50.2799 45.5116 49.5271 45.5116 48.9932C45.5116 48.4592 45.3735 47.7065 44.3023 47.7065C42.5018 47.7065 40.6744 46.5156 40.6744 44.4897C40.6744 42.8351 41.6773 41.654 43.093 41.273C43.093 40.9964 42.9102 40.8252 43.093 40.6297C43.2759 40.4341 44.0437 39.9863 44.3023 39.9863Z" fill="white"/>
<defs>
<linearGradient id="paint0_linear_655_43860" x1="13.0135" y1="44.2543" x2="76.0135" y2="44.2543" gradientUnits="userSpaceOnUse">
<stop stop-color="#5BA7EA"/>
<stop offset="1" stop-color="#21415D"/>
</linearGradient>
<linearGradient id="paint1_linear_655_43860" x1="13.0135" y1="44.2543" x2="76.0135" y2="44.2543" gradientUnits="userSpaceOnUse">
<stop stop-color="#18AB22"/>
<stop offset="1" stop-color="#0E5212"/>
</linearGradient>
</defs>
</svg>
