<svg width="88" height="88" viewBox="0 0 88 88" fill="none" xmlns="http://www.w3.org/2000/svg">
    <circle cx="44.5135" cy="44.2543" r="31.5" transform="rotate(-47.2458 44.5135 44.2543)"
            fill="url(#paint0_linear_655_43876)"/>
    <circle cx="44.5135" cy="44.2543" r="31.5" transform="rotate(-47.2458 44.5135 44.2543)"
            fill="url(#paint1_linear_655_43876)"/>
    <g clip-path="url(#clip0_655_43876)">
        <path d="M52.8475 31.892C48.1882 31.9123 41.7365 34.8992 37.5637 40.4114L34.3939 40.4252C31.8807 40.4361 30.6417 42.6845 29.6576 44.6722L28.0842 47.3206L34.4238 47.293L37.6073 50.449L40.7909 53.605L40.8185 59.9446L43.453 58.3482C45.432 57.349 47.6697 56.0886 47.6587 53.5752L47.645 50.4054C53.1202 46.1845 56.0513 39.7056 56.0311 35.048L56.0173 31.8783L52.8475 31.892ZM47.5921 38.2546C48.1682 38.2521 48.2442 38.9009 48.6533 39.3066C49.0625 39.7122 49.712 39.7824 49.7145 40.3586C49.717 40.9347 49.0704 41.5389 48.6648 41.9481C48.2592 42.3572 48.1889 43.0067 47.6128 43.0092C47.0367 43.0117 46.4325 42.3652 46.0233 41.9595C45.6142 41.5539 44.9623 40.9554 44.9598 40.3792C44.9573 39.8031 45.6062 39.7272 46.0118 39.3181C46.4174 38.9089 47.016 38.2571 47.5921 38.2546ZM33.3855 51.524L32.3335 52.5852C30.772 54.1605 30.2433 57.8774 30.2433 57.8774C30.2433 57.8774 33.7826 57.491 35.5171 55.7412L36.5691 54.68L33.3855 51.524Z"
              fill="white"/>
    </g>
    <defs>
        <linearGradient id="paint0_linear_655_43876" x1="13.0135" y1="44.2543" x2="76.0135" y2="44.2543"
                        gradientUnits="userSpaceOnUse">
            <stop stop-color="#5BA7EA"/>
            <stop offset="1" stop-color="#21415D"/>
        </linearGradient>
        <linearGradient id="paint1_linear_655_43876" x1="13.0135" y1="44.2543" x2="76.0135" y2="44.2543"
                        gradientUnits="userSpaceOnUse">
            <stop stop-color="#18AB22"/>
            <stop offset="1" stop-color="#0E5212"/>
        </linearGradient>
        <clipPath id="clip0_655_43876">
            <rect width="33" height="33" fill="white" transform="translate(28 28) rotate(-0.249131)"/>
        </clipPath>
    </defs>
</svg>
