<svg width="88" height="88" viewBox="0 0 88 88" fill="none" xmlns="http://www.w3.org/2000/svg">
    <circle cx="45.9266" cy="46.1989" r="32.5" transform="rotate(-47.2458 45.9266 46.1989)"
            fill="url(#paint0_linear_655_43892)"/>
    <circle cx="45.9266" cy="46.1989" r="32.5" transform="rotate(-47.2458 45.9266 46.1989)"
            fill="url(#paint1_linear_655_43892)"/>
    <path d="M46.5873 61.0286C44.507 61.0284 42.354 60.2655 40.6333 59.0444C38.9126 57.8233 37.4305 56.4346 36.6639 54.4146C35.8974 52.3946 35.5498 49.9215 36.0024 47.8006C36.455 45.6798 37.7949 43.9982 39.3102 42.5094C41.1678 40.6833 45.9563 37.1721 45.2642 29.9429C53.5695 35.7263 57.5388 41.7711 49.2335 50.4462C50.6177 50.4462 53.0501 50.0491 56.5107 46.4778C56.8844 47.5955 57.1722 49.1941 57.1722 50.4462C57.1722 53.3222 55.8114 55.688 53.8644 57.7216C51.9175 59.7552 49.3407 61.0286 46.5873 61.0286Z"
          fill="white"/>
    <defs>
        <linearGradient id="paint0_linear_655_43892" x1="13.4266" y1="46.1989" x2="78.4266" y2="46.1989"
                        gradientUnits="userSpaceOnUse">
            <stop stop-color="#5BA7EA"/>
            <stop offset="1" stop-color="#21415D"/>
        </linearGradient>
        <linearGradient id="paint1_linear_655_43892" x1="13.4266" y1="46.1989" x2="78.4266" y2="46.1989"
                        gradientUnits="userSpaceOnUse">
            <stop stop-color="#18AB22"/>
            <stop offset="1" stop-color="#0E5212"/>
        </linearGradient>
    </defs>
</svg>
